HIERARCHY
ROOT Hips
{
 OFFSET 0.000000 0.000000 0.000000
 CHANNELS 6 Xposition Yposition Zposition Yrotation Xrotation Zrotation
 JOINT Chest
 {
  OFFSET 0.000000 9.910571 -0.011835
  CHANNELS 3 Yrotation Xrotation Zrotation
  JOINT Chest2
  {
   OFFSET 0.000000 10.789473 0.021497
   CHANNELS 3 Yrotation Xrotation Zrotation
   JOINT Chest3
   {
    OFFSET 0.000000 9.748205 0.000000
    CHANNELS 3 Yrotation Xrotation Zrotation
    JOINT Chest4
    {
     OFFSET 0.000000 9.748205 0.000000
     CHANNELS 3 Yrotation Xrotation Zrotation
     JOINT Neck
     {
      OFFSET 0.000000 13.998479 0.000000
      CHANNELS 3 Yrotation Xrotation Zrotation
      JOINT Head
      {
       OFFSET 0.000000 9.082285 0.051121
       CHANNELS 3 Yrotation Xrotation Zrotation
       End Site
       {
        OFFSET 0.000000 17.246134 0.026702
       }
      }
     }
     JOINT RightCollar
     {
      OFFSET -3.284495 7.824262 0.000000
      CHANNELS 3 Yrotation Xrotation Zrotation
      JOINT RightShoulder
      {
       OFFSET -15.534540 0.000000 0.000000
       CHANNELS 3 Yrotation Xrotation Zrotation
       JOINT RightElbow
       {
        OFFSET 0.000000 -28.251216 0.000000
        CHANNELS 3 Yrotation Xrotation Zrotation
        JOINT RightWrist
        {
         OFFSET 0.000000 -23.418114 0.012537
         CHANNELS 3 Yrotation Xrotation Zrotation
         End Site
         {
          OFFSET 0.000000 -17.723959 0.000000
         }
        }
       }
      }
     }
     JOINT LeftCollar
     {
      OFFSET 3.284495 7.824262 0.000000
      CHANNELS 3 Yrotation Xrotation Zrotation
      JOINT LeftShoulder
      {
       OFFSET 15.534540 0.000000 0.000000
       CHANNELS 3 Yrotation Xrotation Zrotation
       JOINT LeftElbow
       {
        OFFSET 0.000000 -28.251216 0.000000
        CHANNELS 3 Yrotation Xrotation Zrotation
        JOINT LeftWrist
        {
         OFFSET 0.000000 -23.418114 0.012537
         CHANNELS 3 Yrotation Xrotation Zrotation
         End Site
         {
          OFFSET 0.000000 -17.723959 0.000000
         }
        }
       }
      }
     }
    }
   }
  }
 }
 JOINT RightHip
 {
  OFFSET -8.142657 0.057990 0.005917
  CHANNELS 3 Yrotation Xrotation Zrotation
  JOINT RightKnee
  {
   OFFSET 0.000000 -49.716894 0.008478
   CHANNELS 3 Yrotation Xrotation Zrotation
   JOINT RightAnkle
   {
    OFFSET 0.000000 -43.994153 0.004166
    CHANNELS 3 Yrotation Xrotation Zrotation
    JOINT RightToe
    {
     OFFSET 0.000000 -7.619154 17.822051
     CHANNELS 3 Yrotation Xrotation Zrotation
     End Site
     {
      OFFSET 0.000000 -1.595627 7.159905
     }
    }
   }
  }
 }
 JOINT LeftHip
 {
  OFFSET 8.142657 0.057990 0.005917
  CHANNELS 3 Yrotation Xrotation Zrotation
  JOINT LeftKnee
  {
   OFFSET 0.000000 -49.716894 0.008478
   CHANNELS 3 Yrotation Xrotation Zrotation
   JOINT LeftAnkle
   {
    OFFSET 0.000000 -43.994153 0.004166
    CHANNELS 3 Yrotation Xrotation Zrotation
    JOINT LeftToe
    {
     OFFSET 0.000000 -7.619154 17.822051
     CHANNELS 3 Yrotation Xrotation Zrotation
     End Site
     {
      OFFSET 0.000000 -1.595627 7.159905
     }
    }
   }
  }
 }
}
MOTION
Frames: 5
Frame Time: 0.008333
245.396481 56.557972 264.141536 -53.946410 -55.681749 2.809175 -2.064328 21.259347 -1.684453 -0.785750 9.438288 -0.708563 -0.785750 9.438288 -0.708563 -0.576942 7.079649 -0.517981 1.580396 18.967611 1.045663 2.560006 -0.964659 1.408633 -1.325430 9.136911 12.690404 25.038287 -18.212751 -25.424199 -2.362141 -43.116454 33.807599 2.317180 -12.813452 -10.254988 -1.107293 10.754065 -9.887995 -8.348810 -19.089141 17.995731 21.376054 -47.196795 -30.578798 -3.358965 3.284731 -10.389884 -7.194648 -31.483020 -9.463824 -92.986319 73.782120 -108.531064 -3.517205 -5.087190 7.439149 0.065470 0.147878 0.072540 4.630887 -31.935596 11.845301 78.273621 85.333374 80.823891 -0.786257 0.893348 -1.163164 -0.067803 -0.128253 -0.017701
245.396241 56.563542 264.141662 -53.923675 -55.681102 2.787504 -2.067677 21.265123 -1.678904 -0.786774 9.439762 -0.708291 -0.786774 9.439762 -0.708291 -0.577710 7.080755 -0.517759 1.582610 18.968752 1.039552 2.566025 -0.962460 1.396741 -1.325335 9.132675 12.691962 25.031906 -18.217015 -25.427267 -2.422516 -43.115421 33.855777 2.334041 -12.811742 -10.237506 -1.106741 10.752153 -9.888242 -8.331688 -19.103127 17.992916 21.369971 -47.196703 -30.604174 -3.336449 3.256139 -10.397408 -7.207759 -31.480574 -9.465310 -92.948909 73.797262 -108.488146 -3.515517 -5.049211 7.418436 0.060766 0.143694 0.075167 4.632454 -31.936207 11.845644 78.202060 85.336503 80.759396 -0.781738 0.894551 -1.158820 -0.062303 -0.128754 -0.018414
245.395972 56.570329 264.140441 -53.905530 -55.682053 2.772017 -2.072758 21.267339 -1.675959 -0.786865 9.440898 -0.707208 -0.786865 9.440898 -0.707208 -0.577793 7.081606 -0.516945 1.587108 18.972006 1.034447 2.575905 -0.956343 1.385988 -1.321189 9.129671 12.696730 25.015161 -18.220853 -25.432179 -2.477123 -43.114537 33.901463 2.361899 -12.796001 -10.208365 -1.110444 10.755629 -9.893506 -8.313196 -19.114093 17.996268 21.332194 -47.193491 -30.575522 -3.326124 3.191164 -10.435156 -7.217280 -31.480092 -9.465612 -92.927439 73.801689 -108.462135 -3.510085 -5.009200 7.394971 0.061755 0.137141 0.079722 4.629316 -31.933356 11.844020 78.097763 85.338504 80.658668 -0.774854 0.901952 -1.157663 -0.063056 -0.132476 -0.019418
245.397138 56.576210 264.139335 -53.900027 -55.678178 2.767322 -2.075667 21.265890 -1.676163 -0.786853 9.441755 -0.706700 -0.786853 9.441755 -0.706700 -0.577790 7.082248 -0.516564 1.597714 18.975655 1.028984 2.597091 -0.949469 1.372625 -1.314308 9.132191 12.699841 24.998322 -18.226315 -25.433464 -2.534639 -43.117224 33.937806 2.411675 -12.749017 -10.160085 -1.103374 10.757484 -9.900570 -8.306786 -19.115993 18.007725 21.269059 -47.215866 -30.564969 -3.294752 3.129466 -10.425484 -7.213118 -31.487440 -9.471341 -92.919700 73.821213 -108.445686 -3.507368 -4.957330 7.375040 0.057356 0.125920 0.079134 4.635409 -31.937737 11.832617 78.059697 85.337468 80.631223 -0.758715 0.909317 -1.160137 -0.067732 -0.138397 -0.021789
245.399685 56.583135 264.138088 -53.888857 -55.676854 2.757719 -2.078726 21.266848 -1.673575 -0.787094 9.443083 -0.706087 -0.787094 9.443083 -0.706087 -0.577979 7.083244 -0.516100 1.605000 18.978086 1.024335 2.611932 -0.944877 1.361803 -1.310771 9.128926 12.699286 24.976625 -18.227998 -25.428811 -2.617989 -43.126441 33.994371 2.468819 -12.655897 -10.099609 -1.102876 10.755504 -9.896150 -8.309325 -19.117888 18.008818 21.211700 -47.224154 -30.518076 -3.278126 3.046633 -10.437048 -7.214115 -31.487240 -9.471913 -92.875136 73.827369 -108.392977 -3.504725 -4.909487 7.351825 0.060244 0.123175 0.082186 4.641646 -31.939034 11.824364 77.952499 85.336172 80.531925 -0.751213 0.920077 -1.156657 -0.072136 -0.143718 -0.024269
